<svg width="30" height="20" viewBox="0 0 30 20" fill="none" xmlns="http://www.w3.org/2000/svg">
<path d="M29.8923 9.93712C29.5123 10.3257 29.143 10.7178 28.7523 11.1037C28.7007 11.1779 28.6283 11.2405 28.5414 11.286C28.4544 11.3316 28.3556 11.3587 28.2534 11.365C28.1512 11.3714 28.0487 11.3568 27.9547 11.3225C27.8607 11.2883 27.7781 11.2353 27.714 11.1683C23.6884 8.3566 19.664 5.54341 15.6406 2.72872C15.4843 2.61925 15.3986 2.60579 15.2317 2.72334C11.219 5.53504 7.20234 8.34374 3.18179 11.1495C2.73863 11.459 2.45283 11.4393 2.08139 11.0723C1.79558 10.7896 1.51406 10.5034 1.22504 10.2207C0.852528 9.85099 0.870726 9.6096 1.31281 9.30001C3.50863 7.76375 5.70551 6.22899 7.90347 4.69571C9.88377 3.3126 11.8641 1.92919 13.8444 0.545472C14.268 0.194886 14.8397 -0.00117127 15.435 5.26482e-06C16.0302 0.0011818 16.6009 0.199487 17.0225 0.551743C18.3249 1.47123 19.6308 2.38742 20.9403 3.30033C20.9949 3.33891 21.0527 3.37481 21.1147 3.41519C21.1628 3.34187 21.1779 3.25658 21.1576 3.1747C21.1576 2.35363 21.1576 1.53344 21.1576 0.71237C21.1576 0.20447 21.347 0.0456496 21.9443 0.0447523H25.0229C25.5731 0.0447523 25.7636 0.20717 25.7636 0.672894C25.7636 2.59861 25.7636 4.52402 25.7636 6.44913C25.7585 6.51831 25.7743 6.58746 25.8095 6.65019C25.8446 6.71292 25.8981 6.76721 25.9649 6.80806C27.1345 7.61448 28.3009 8.42419 29.4641 9.23719C29.6493 9.3408 29.7973 9.48475 29.8923 9.65356V9.93712Z" fill="black"/>
<path d="M25.768 14.798C25.768 15.9502 25.768 17.1021 25.768 18.2537C25.7798 18.3937 25.7557 18.5342 25.6975 18.6657C25.6394 18.7973 25.5484 18.917 25.4307 19.0168C25.313 19.1166 25.1712 19.1942 25.0149 19.2444C24.8586 19.2946 24.6913 19.3163 24.5242 19.3081C22.3405 19.3081 20.1568 19.3081 17.9731 19.3135C17.7462 19.3135 17.7173 19.2488 17.7173 19.0837C17.7237 17.316 17.7173 15.5491 17.728 13.7813C17.728 13.565 17.6563 13.5264 17.4165 13.5282C16.0992 13.5384 14.7815 13.5384 13.4634 13.5282C13.2172 13.5282 13.1348 13.5668 13.1359 13.7921C13.1487 15.5437 13.1359 17.2917 13.1498 19.0469C13.1498 19.2704 13.0716 19.3161 12.8222 19.3161C10.6953 19.3081 8.56833 19.2955 6.44138 19.3161C6.26216 19.3246 6.08281 19.3014 5.91492 19.2482C5.74703 19.1949 5.59432 19.1127 5.46663 19.007C5.33895 18.9012 5.23911 18.7742 5.17359 18.6341C5.10807 18.494 5.0783 18.3439 5.08621 18.1936C5.11404 15.8901 5.10013 13.5857 5.09157 11.284C5.08748 11.2036 5.10761 11.1237 5.15007 11.0515C5.19254 10.9794 5.25598 10.9174 5.33456 10.8712C8.61722 8.60747 11.8967 6.33957 15.1729 4.06748C15.387 3.91672 15.5047 3.93915 15.7081 4.07645C18.9836 6.34973 22.2638 8.61675 25.5486 10.8775C25.6259 10.9252 25.6876 10.9886 25.7278 11.0617C25.768 11.1349 25.7856 11.2153 25.7787 11.2956C25.7638 12.4622 25.768 13.6305 25.768 14.798Z" fill="black"/>
</svg>
