<svg width="24" height="20" viewBox="0 0 24 20" fill="none" xmlns="http://www.w3.org/2000/svg">
<path d="M16.2033 15.1275C16.1105 15.0064 15.9879 14.9032 15.8437 14.8251C15.7839 14.7326 15.6936 14.6566 15.5835 14.6061C15.5194 14.5107 15.4249 14.4321 15.3106 14.3791C15.2511 14.2867 15.1607 14.2109 15.0505 14.1611C14.9659 14.0049 14.8524 14.0229 14.7036 14.1045C14.3515 14.2983 13.9918 14.4832 13.6332 14.6717L12.9471 14.9184L11.7696 15.2531L11.4281 15.3105L10.5375 15.4335C10.39 15.4068 10.2363 15.418 10.0965 15.4658L9.29477 15.49C9.25405 15.4729 9.20958 15.463 9.16411 15.4608C9.11865 15.4587 9.07314 15.4643 9.03038 15.4775C8.80063 15.4193 8.55906 15.4013 8.32067 15.4245L7.98778 15.3698L7.34551 15.2755C7.26977 15.225 7.17457 15.1995 7.0779 15.2038L6.55982 15.0745L6.19266 14.9723L5.67136 14.7928C5.52324 14.696 5.35422 14.6241 5.1736 14.581L4.77219 14.3881L4.43608 14.2176C4.37014 14.1388 4.27179 14.0832 4.15991 14.0614C4.06967 13.9665 3.95269 13.8919 3.81951 13.8443C3.76666 13.7684 3.6813 13.7122 3.58081 13.6872L3.19651 13.4001L2.91715 13.1722L2.66559 12.9532C2.59779 12.8406 2.49865 12.7434 2.37657 12.6697L2.04902 12.3179L1.94197 12.203L1.60908 11.7732L1.49453 11.6162C1.44591 11.478 1.36271 11.3501 1.25048 11.2411L1.16698 11.0939C1.13227 10.9614 1.0636 10.8368 0.965736 10.7287C0.956452 10.6179 0.909254 10.5116 0.829792 10.4227L0.615709 9.90851L0.577179 9.75508L0.424101 9.24448C0.444517 9.14006 0.420257 9.03295 0.355599 8.94207L0.309571 8.4288C0.327747 8.32618 0.308335 8.22134 0.253906 8.12817V7.53504L0.286018 7.16082L0.372716 6.49052C0.432938 6.40155 0.452361 6.29721 0.427319 6.19709L0.734535 5.29974L0.948618 4.78376C1.57485 3.57972 2.53574 2.51882 3.751 1.6897C5.21706 0.722332 6.99092 0.138928 8.85054 0.0125423L9.20807 0H10.0023L10.271 0.0170334C10.5024 0.0648317 10.7402 0.0874623 10.9786 0.0843455L11.3104 0.145359L11.9526 0.258431C11.9715 0.283069 11.9997 0.301727 12.0326 0.311476C12.0656 0.321224 12.1015 0.321506 12.1346 0.31227L12.7533 0.472882C12.7849 0.503568 12.8245 0.527683 12.8691 0.543262C12.9137 0.55884 12.962 0.565458 13.0102 0.562623C13.1739 0.658217 13.3583 0.726204 13.5529 0.762752C13.5698 0.788874 13.5954 0.810276 13.6266 0.824313C13.6578 0.83835 13.6932 0.84439 13.7285 0.841702C13.8838 0.949523 14.0627 1.03091 14.2551 1.08129C14.2854 1.11922 14.3243 1.15172 14.3697 1.17684C14.4151 1.20196 14.4661 1.21919 14.5195 1.22756L14.7689 1.36845L15.0451 1.53627L15.4915 1.83328L15.6735 1.96607C15.7659 2.08258 15.8885 2.18014 16.0321 2.25145C16.0467 2.28614 16.07 2.31778 16.1005 2.34426C16.1309 2.37073 16.1678 2.39142 16.2087 2.40489L16.5298 2.70998L16.7439 2.92265L17.0083 3.21789L17.1442 3.37672L17.4236 3.74732C17.4598 3.85849 17.5304 3.95969 17.6281 4.04075L17.8486 4.42302L17.9792 4.64108C17.9999 4.77093 18.0592 4.89433 18.1515 5.00002C18.1488 5.04033 18.1563 5.08067 18.1734 5.1184C18.1906 5.15613 18.217 5.19038 18.2511 5.21896C18.2746 5.3998 18.3362 5.57572 18.433 5.73853C18.4244 5.77852 18.4266 5.81964 18.4396 5.85881C18.4525 5.89797 18.4759 5.93417 18.508 5.96468C18.4935 6.11723 18.5279 6.27024 18.6075 6.40796C18.5887 6.5363 18.6117 6.66653 18.6739 6.78485L18.7103 7.29903L18.7285 7.59873C18.7221 7.79615 18.7153 7.99357 18.7081 8.19099L18.6942 8.56339L18.524 9.38086L18.4427 9.67969L18.0637 10.6452C17.9368 10.8013 17.844 10.9751 17.7897 11.1585C17.5756 11.4466 17.3883 11.7436 17.1571 12.0182C17.0072 12.1977 17.1111 12.273 17.2727 12.3547L17.4514 12.5045C17.5401 12.625 17.6615 12.7262 17.8058 12.7998C17.8654 12.8956 17.9579 12.9744 18.0712 13.0259C18.1323 13.1189 18.2236 13.1955 18.3346 13.2467C18.3966 13.3417 18.4898 13.4199 18.6032 13.4719C18.6642 13.5649 18.7556 13.6415 18.8666 13.6926C18.9278 13.7879 19.0218 13.8654 19.1363 13.9152C19.2241 14.0361 19.3448 14.1378 19.4885 14.2122L19.6672 14.3621C19.7559 14.4825 19.8773 14.5837 20.0216 14.6573C20.0815 14.7532 20.1744 14.832 20.2881 14.8834C20.3492 14.9764 20.4405 15.053 20.5514 15.1042C20.6139 15.199 20.707 15.277 20.8201 15.3294C20.8811 15.4224 20.9725 15.499 21.0834 15.5501C21.145 15.6451 21.2389 15.7226 21.3532 15.7727C21.4413 15.8937 21.5623 15.9955 21.7064 16.0697L21.8852 16.2196C21.9742 16.34 22.0955 16.4414 22.2395 16.5157C22.2986 16.6117 22.3912 16.6903 22.505 16.7409L22.7683 16.9626C22.8305 17.0575 22.9237 17.1356 23.037 17.1878L23.3003 17.4095L23.463 17.5611L23.691 18.0223L23.7477 18.2251C23.7275 18.5773 23.5544 18.9112 23.2611 19.1639C22.9678 19.4166 22.5744 19.5707 22.1549 19.5972L21.8852 19.5729L21.3585 19.4016L21.1733 19.2706L20.8126 18.9717L20.6403 18.8273C20.548 18.706 20.4257 18.6029 20.2817 18.5248C20.2221 18.432 20.1312 18.3559 20.0205 18.3059C19.9572 18.2102 19.863 18.1315 19.7486 18.0789C19.6891 17.9865 19.5987 17.9107 19.4885 17.8608C19.4254 17.7648 19.3311 17.6857 19.2166 17.6329C19.1573 17.5402 19.0668 17.4641 18.9565 17.4139C18.8629 17.2935 18.74 17.191 18.5957 17.1133L18.4234 16.9689C18.3307 16.848 18.2085 16.7449 18.0648 16.6664C18.0052 16.5736 17.9144 16.4974 17.8036 16.4475C17.7405 16.3515 17.6463 16.2725 17.5317 16.2196C17.4723 16.1272 17.3818 16.0514 17.2716 16.0015C17.2084 15.9056 17.1141 15.8266 16.9997 15.7736C16.94 15.6811 16.8491 15.6053 16.7385 15.5555C16.6452 15.435 16.5222 15.3325 16.3778 15.2549L16.2033 15.1275ZM6.72252 2.79882C5.33449 3.30029 4.2251 4.22452 3.61828 5.38497C3.38631 5.7022 3.23406 6.05582 3.17084 6.42411C3.09085 6.53559 3.06015 6.66709 3.08412 6.79562C2.98144 7.03354 2.94804 7.28857 2.98671 7.5395C2.96732 7.57418 2.95728 7.61202 2.95728 7.65033C2.95728 7.68863 2.96732 7.72647 2.98671 7.76115C2.95692 7.98372 2.96378 8.20867 3.00706 8.42967C2.99544 8.46904 2.9956 8.51021 3.00755 8.54951C3.0195 8.58881 3.04287 8.62502 3.07556 8.65491C3.06818 8.8637 3.12222 9.0708 3.23292 9.25793L3.27787 9.39792C3.31121 9.5842 3.3919 9.7623 3.51444 9.92018C3.51046 9.94931 3.51675 9.97878 3.53254 10.0049C3.54833 10.0311 3.57292 10.0528 3.60328 10.0673C3.64309 10.235 3.73715 10.3902 3.87517 10.516C3.88419 10.5625 3.9043 10.6069 3.93428 10.6467C3.96426 10.6865 4.0035 10.7208 4.04966 10.7475C4.12301 10.9019 4.24066 11.0388 4.39219 11.146C4.40711 11.1874 4.43187 11.2258 4.46499 11.2589C4.4981 11.2921 4.53889 11.3193 4.58488 11.3389C4.63719 11.4335 4.7232 11.5122 4.83107 11.5641C5.01948 11.7254 5.2193 11.877 5.42945 12.0182C5.51017 12.1065 5.61776 12.175 5.74094 12.2165C5.82603 12.2978 5.93766 12.3565 6.06206 12.3852C6.13629 12.4618 6.24068 12.5136 6.35644 12.5315C6.51091 12.639 6.69482 12.7127 6.89165 12.7459C6.92281 12.7768 6.96224 12.801 7.00671 12.8166C7.05118 12.8322 7.09942 12.8387 7.14748 12.8357C7.33494 12.9338 7.54645 12.9952 7.7662 13.0151L8.03059 13.0735L8.65466 13.1686L9.02074 13.1892C9.28404 13.2327 9.55491 13.2327 9.8182 13.1892L10.0848 13.1838C10.4178 13.1909 10.7491 13.1414 11.0588 13.0385C12.2223 12.8115 13.2864 12.3153 14.13 11.6063C14.9736 10.8974 15.5629 10.0041 15.8308 9.02823L15.9914 8.27084L15.9989 7.98639C16.0367 7.76559 16.0367 7.54137 15.9989 7.32056C16.0145 7.28222 16.0179 7.24114 16.0089 7.20135C15.9999 7.16156 15.9787 7.12443 15.9475 7.09354C15.9546 6.83793 15.9003 6.58373 15.788 6.34604C15.7653 6.16422 15.6955 5.98874 15.5835 5.83186C15.5775 5.70817 15.5195 5.59025 15.4198 5.49894C15.4021 5.37171 15.3339 5.25316 15.226 5.16244C15.2091 5.06637 15.149 4.97937 15.058 4.91926C15.0096 4.78184 14.9139 4.65946 14.7829 4.5675C14.7762 4.53359 14.76 4.50149 14.7357 4.47387C14.7113 4.44625 14.6794 4.4239 14.6426 4.40867C14.5573 4.26149 14.4287 4.1349 14.2691 4.04075C14.2526 4.00473 14.2277 3.97183 14.1959 3.94395C14.1641 3.91606 14.126 3.89375 14.0839 3.87833C13.9962 3.76036 13.8724 3.6643 13.7253 3.60016C13.7018 3.56085 13.6686 3.52626 13.6278 3.49869C13.5869 3.47113 13.5395 3.45124 13.4887 3.44042C13.3989 3.34032 13.2772 3.26352 13.1376 3.21879C13.0615 3.14151 12.9568 3.0878 12.84 3.06623C12.718 2.96201 12.5626 2.8897 12.3926 2.85805C12.2929 2.78032 12.1668 2.73046 12.0319 2.71538C11.8753 2.62087 11.6894 2.56661 11.4966 2.55923C11.4627 2.52982 11.4206 2.50782 11.3741 2.49515C11.3277 2.48248 11.2782 2.47954 11.2301 2.48655C11.0387 2.41091 10.8314 2.36762 10.62 2.35913L10.2571 2.32503C10.0277 2.2643 9.78421 2.25106 9.5474 2.28645H9.27871C8.98137 2.26672 8.6822 2.29038 8.39453 2.35642L7.88394 2.43988C7.47826 2.50774 7.08779 2.62855 6.7268 2.79791L6.72252 2.79882Z" fill="#2C2C2C"/>
</svg>
